<svg width="60" height="54" viewBox="0 0 60 54" fill="none" xmlns="http://www.w3.org/2000/svg">
<g clip-path="url(#clip0_22_13714)">
<path d="M58.9125 35.4877C57.5653 33.6589 54.9962 33.2636 53.1695 34.6181L40.8784 43.6716H28.495C27.5967 43.6716 26.9445 42.9271 26.9445 42.0297C26.9445 41.1312 27.6889 40.3868 28.495 40.3868H36.5298C38.0803 40.3868 39.6873 39.2696 39.9563 37.6534C40.2901 35.5997 38.7118 33.8151 36.7095 33.8151H20.191C17.511 33.8151 14.7366 34.7649 12.5802 36.5105L7.80552 40.3858L2.11898 40.2932C1.31303 40.2932 0.568481 41.1352 0.568481 42.0286V51.884C0.568481 52.7897 1.31303 53.529 2.11898 53.529H37.6573C39.9194 53.529 42.1671 52.7909 43.9928 51.4476L57.8651 41.2287C59.8674 39.8825 60.2576 37.3154 58.9125 35.4877ZM29.2476 18.9251C28.4672 18.8121 27.4404 18.4425 26.5368 18.1139L26.0337 17.9393C24.7501 17.3951 23.3434 18.155 22.8916 19.3461C22.4398 20.5372 23.1094 22.0363 24.3897 22.4923L24.8677 22.6623C25.7391 22.9766 26.7037 23.2881 27.6802 23.5158V24.778C27.6802 26.1385 28.7819 27.2423 30.1425 27.2423C31.503 27.2423 32.6069 26.1385 32.6069 24.778V23.7101C35.2016 23.1224 37.0099 21.4665 37.3405 19.0154C38.2326 13.8762 33.3472 12.4787 30.7257 11.7301L30.182 11.5422C27.4815 10.7762 27.6355 10.4456 27.7074 10.0236C27.8261 9.3288 29.2784 8.99057 31.0148 9.26463C31.5218 9.34482 32.1823 9.52616 33.0325 9.82137C34.3191 10.261 35.7238 9.58397 36.1663 8.29757C36.6089 7.01117 35.9292 5.60832 34.6425 5.16268C33.8619 4.89293 33.2132 4.71519 32.6074 4.57524V3.42006C32.6074 2.05952 31.5035 0.955688 30.143 0.955688C28.7825 0.955688 27.6807 2.05952 27.6807 3.42006V4.50028C25.089 5.08659 23.2715 6.73156 22.7581 9.18361C21.9674 14.2633 26.927 15.7214 28.7958 16.2759L29.463 16.4684C32.714 17.3989 32.6616 17.6893 32.5784 18.177C32.4616 18.8737 31.0137 19.2126 29.2476 18.9251Z" fill="#E2E221"/>
</g>
<defs>
<clipPath id="clip0_22_13714">
<rect width="59.1449" height="52.5733" fill="white" transform="translate(0.568481 0.955688)"/>
</clipPath>
</defs>
</svg>
