<?xml version="1.0" encoding="UTF-8"?>
<!DOCTYPE svg PUBLIC "-//W3C//DTD SVG 1.1//EN" "http://www.w3.org/Graphics/SVG/1.1/DTD/svg11.dtd">
<svg xmlns="http://www.w3.org/2000/svg" version="1.1" width="1200px" height="1200px" style="shape-rendering:geometricPrecision; text-rendering:geometricPrecision; image-rendering:optimizeQuality; fill-rule:evenodd; clip-rule:evenodd" xmlns:xlink="http://www.w3.org/1999/xlink">
<g><path style="opacity:0.996" fill="#e8e82f" d="M 597.5,19.5 C 746.717,21.5157 877.05,71.6823 988.5,170C 1102.25,276.669 1164.42,407.836 1175,563.5C 1181.46,743.046 1119.96,894.879 990.5,1019C 869.892,1126.07 728.559,1175.91 566.5,1168.5C 411.151,1157.45 280.318,1095.12 174,981.5C 70.259,863.342 20.9257,725.342 26,567.5C 37.5266,398.288 108.027,258.788 237.5,149C 342.922,65.4693 462.922,22.3026 597.5,19.5 Z"/></g>
<g><path style="opacity:1" fill="#f9f9cc" d="M 830.5,850.5 C 830.5,626.167 830.5,401.833 830.5,177.5C 762.833,177.5 695.167,177.5 627.5,177.5C 627.667,405.834 627.5,634.167 627,862.5C 626.824,866.688 626.324,870.688 625.5,874.5C 626.487,641.84 626.821,409.174 626.5,176.5C 694.833,176.5 763.167,176.5 831.5,176.5C 831.833,401.334 831.5,626.001 830.5,850.5 Z"/></g>
<g><path style="opacity:1" fill="#fefefe" d="M 830.5,850.5 C 828.483,978.692 763.816,1051.19 636.5,1068C 594.825,1072.63 553.159,1072.63 511.5,1068C 464.215,1061.58 421.548,1044.25 383.5,1016C 340.544,979.247 318.044,932.414 316,875.5C 315.5,822.501 315.333,769.501 315.5,716.5C 383.5,716.5 451.5,716.5 519.5,716.5C 519.168,768.003 519.501,819.336 520.5,870.5C 522.218,920.052 547.218,939.219 595.5,928C 606.333,923.167 614.167,915.333 619,904.5C 621.921,894.631 624.088,884.631 625.5,874.5C 626.324,870.688 626.824,866.688 627,862.5C 627.5,634.167 627.667,405.834 627.5,177.5C 695.167,177.5 762.833,177.5 830.5,177.5C 830.5,401.833 830.5,626.167 830.5,850.5 Z"/></g>
<g><path style="opacity:1" fill="#f6f6ad" d="M 315.5,716.5 C 383.665,715.501 451.998,715.167 520.5,715.5C 520.5,767.167 520.5,818.833 520.5,870.5C 519.501,819.336 519.168,768.003 519.5,716.5C 451.5,716.5 383.5,716.5 315.5,716.5 Z"/></g>
</svg>
