<?xml version="1.0" encoding="UTF-8"?>
<!DOCTYPE svg PUBLIC "-//W3C//DTD SVG 1.1//EN" "http://www.w3.org/Graphics/SVG/1.1/DTD/svg11.dtd">
<svg xmlns="http://www.w3.org/2000/svg" version="1.1" width="3264px" height="1314px" style="shape-rendering:geometricPrecision; text-rendering:geometricPrecision; image-rendering:optimizeQuality; fill-rule:evenodd; clip-rule:evenodd" xmlns:xlink="http://www.w3.org/1999/xlink">
<g><path style="opacity:0.99" fill="#fefefe" d="M 590.5,74.5 C 765.167,75.0102 911.834,138.677 1030.5,265.5C 1145.71,398.872 1192.87,553.538 1172,729.5C 1143.84,906.997 1054,1044.16 902.5,1141C 764.175,1222.64 616.509,1244.64 459.5,1207C 329.784,1172.39 223.951,1101.89 142,995.5C 37.9781,850.849 4.97809,690.849 43,515.5C 83.0711,360.409 171.238,240.575 307.5,156C 394.872,105.07 489.206,77.9029 590.5,74.5 Z"/></g>
<g><path style="opacity:0.906" fill="#fefefe" d="M 2930.5,196.5 C 2971.21,195.781 3011.55,199.281 3051.5,207C 3137.52,225.351 3191.02,277.184 3212,362.5C 3216.07,381.304 3218.73,400.304 3220,419.5C 3220.67,463.5 3220.67,507.5 3220,551.5C 3217.66,557.174 3213.49,560.674 3207.5,562C 3136.83,562.667 3066.17,562.667 2995.5,562C 2989.11,560.61 2984.94,556.776 2983,550.5C 2982.67,505.5 2982.33,460.5 2982,415.5C 2979.75,379.302 2961.25,366.135 2926.5,376C 2920.27,379.601 2915.77,384.767 2913,391.5C 2910.31,398.943 2908.64,406.609 2908,414.5C 2907.33,585.5 2907.33,756.5 2908,927.5C 2907.96,941.729 2912.79,953.896 2922.5,964C 2938.06,972.971 2953.39,972.637 2968.5,963C 2977.72,952.669 2982.22,940.502 2982,926.5C 2982.71,872.834 2983.37,819.167 2984,765.5C 2985.83,758.333 2990.33,753.833 2997.5,752C 3067.5,751.333 3137.5,751.333 3207.5,752C 3213.49,753.326 3217.66,756.826 3220,762.5C 3220.67,813.167 3220.67,863.833 3220,914.5C 3210.91,1049.17 3139.41,1125 3005.5,1142C 2948.5,1149.36 2892.16,1146.03 2836.5,1132C 2750.09,1105.92 2697.25,1048.75 2678,960.5C 2673.84,941.373 2671.17,922.039 2670,902.5C 2668.38,757.841 2668.05,613.174 2669,468.5C 2668.59,426 2675.26,384.667 2689,344.5C 2717.9,272.448 2770.06,226.948 2845.5,208C 2873.61,201.446 2901.95,197.612 2930.5,196.5 Z M 2923.5,231.5 C 2969.51,229.468 3014.84,233.968 3059.5,245C 3125.65,264.827 3165.82,308.66 3180,376.5C 3182.84,390.043 3184.84,403.71 3186,417.5C 3187.33,454.153 3187.83,490.82 3187.5,527.5C 3130.5,527.5 3073.5,527.5 3016.5,527.5C 3016.91,486.483 3016.41,445.483 3015,404.5C 3007.78,354.291 2978.94,332.458 2928.5,339C 2905.45,343.374 2889.62,356.541 2881,378.5C 2876.62,391.128 2874.29,404.128 2874,417.5C 2873.33,586.833 2873.33,756.167 2874,925.5C 2876.42,986.431 2907.58,1011.93 2967.5,1002C 2989.74,994.764 3004.24,979.93 3011,957.5C 3012.72,951.248 3014.05,944.914 3015,938.5C 3016.37,887.848 3017.21,837.181 3017.5,786.5C 3074.17,786.5 3130.83,786.5 3187.5,786.5C 3187.88,829.514 3187.38,872.514 3186,915.5C 3177.54,1028.62 3117.04,1092.46 3004.5,1107C 2970.91,1110.82 2937.24,1111.49 2903.5,1109C 2784.48,1097.97 2718.31,1033.14 2705,914.5C 2704.08,904.852 2703.41,895.185 2703,885.5C 2702.33,742.833 2702.33,600.167 2703,457.5C 2706.98,314.026 2780.48,238.692 2923.5,231.5 Z"/></g>
<g><path style="opacity:0.921" fill="#fefefe" d="M 1608.5,214.5 C 1685.17,214.333 1761.83,214.5 1838.5,215C 1844.74,216.908 1848.57,221.075 1850,227.5C 1862.64,402.206 1875.64,576.873 1889,751.5C 1911.67,578.833 1934.33,406.167 1957,233.5C 1957.26,224.59 1961.43,218.423 1969.5,215C 2036.5,214.333 2103.5,214.333 2170.5,215C 2178.57,217.743 2182.9,223.41 2183.5,232C 2134.26,527.615 2084.43,823.115 2034,1118.5C 2032.1,1123.4 2028.6,1126.57 2023.5,1128C 1930.83,1128.67 1838.17,1128.67 1745.5,1128C 1740.16,1126.59 1736.33,1123.42 1734,1118.5C 1688.3,825.906 1642.96,533.239 1598,240.5C 1594.37,228.601 1597.87,219.934 1608.5,214.5 Z M 1633.5,248.5 C 1694.83,248.5 1756.17,248.5 1817.5,248.5C 1833.81,470.838 1850.31,693.172 1867,915.5C 1873.57,927.523 1883.07,930.356 1895.5,924C 1898.94,920.889 1901.11,917.056 1902,912.5C 1931,691.5 1960,470.5 1989,249.5C 2041.43,248.17 2093.93,248.17 2146.5,249.5C 2099.07,530.755 2052.07,812.088 2005.5,1093.5C 1924.83,1093.5 1844.17,1093.5 1763.5,1093.5C 1720.35,811.804 1677.02,530.138 1633.5,248.5 Z"/></g>
<g><path style="opacity:0.912" fill="#fefefe" d="M 2243.5,214.5 C 2340.83,214.333 2438.17,214.5 2535.5,215C 2540.6,216.433 2544.1,219.6 2546,224.5C 2584.49,517.75 2622.49,811.083 2660,1104.5C 2662.46,1114.14 2659.62,1121.64 2651.5,1127C 2579.56,1128.66 2507.56,1128.99 2435.5,1128C 2429.26,1126.09 2425.43,1121.93 2424,1115.5C 2416.59,1048.51 2409.26,981.508 2402,914.5C 2388.56,913.176 2374.89,912.509 2361,912.5C 2347.26,912.504 2333.59,912.838 2320,913.5C 2309.67,980.167 2299.33,1046.83 2289,1113.5C 2287.61,1121.22 2283.11,1126.05 2275.5,1128C 2215.5,1128.67 2155.5,1128.67 2095.5,1128C 2086.85,1125.72 2082.52,1120.05 2082.5,1111C 2132.39,817.51 2182.22,524.01 2232,230.5C 2232.68,222.776 2236.51,217.442 2243.5,214.5 Z M 2263.5,248.5 C 2347.5,248.5 2431.5,248.5 2515.5,248.5C 2551.92,530.156 2588.25,811.823 2624.5,1093.5C 2568.17,1093.5 2511.83,1093.5 2455.5,1093.5C 2448.36,1024.4 2440.53,955.404 2432,886.5C 2429.3,881.564 2425.14,878.73 2419.5,878C 2380.5,877.333 2341.5,877.333 2302.5,878C 2296.92,879.243 2292.75,882.41 2290,887.5C 2279.16,956.04 2268.33,1024.54 2257.5,1093C 2211.5,1093.83 2165.5,1093.67 2119.5,1092.5C 2167.63,811.184 2215.63,529.851 2263.5,248.5 Z M 2364.5,543.5 C 2371.36,610.305 2377.69,677.305 2383.5,744.5C 2371.17,744.5 2358.83,744.5 2346.5,744.5C 2352.86,677.533 2358.86,610.533 2364.5,543.5 Z"/></g>
<g><path style="opacity:1" fill="#f3f396" d="M 832.5,904.5 C 832.5,680.5 832.5,456.5 832.5,232.5C 764.669,231.501 696.669,231.167 628.5,231.5C 628.833,459.667 628.5,687.667 627.5,915.5C 627.5,687.167 627.5,458.833 627.5,230.5C 696.167,230.5 764.833,230.5 833.5,230.5C 833.833,455.334 833.5,680.001 832.5,904.5 Z"/></g>
<g><path style="opacity:1" fill="#eaea3d" d="M 832.5,232.5 C 764.833,232.5 697.167,232.5 629.5,232.5C 629.667,461.834 629.5,691.167 629,920.5C 628.802,922.382 628.302,924.048 627.5,925.5C 627.5,922.167 627.5,918.833 627.5,915.5C 628.5,687.667 628.833,459.667 628.5,231.5C 696.669,231.167 764.669,231.501 832.5,232.5 Z"/></g>
<g><path style="opacity:1" fill="#e9e92f" d="M 832.5,232.5 C 832.5,456.5 832.5,680.5 832.5,904.5C 831.776,912.479 831.442,920.479 831.5,928.5C 830.111,933.269 829.444,938.269 829.5,943.5C 827.956,951.43 826.623,959.43 825.5,967.5C 824.076,969.515 823.41,971.848 823.5,974.5C 808.087,1038.35 769.753,1082.02 708.5,1105.5C 704.064,1106.41 700.064,1108.08 696.5,1110.5C 686.999,1112.33 677.665,1114.66 668.5,1117.5C 664.159,1117.66 660.159,1118.66 656.5,1120.5C 656.167,1120.5 655.833,1120.5 655.5,1120.5C 650.269,1120.44 645.269,1121.11 640.5,1122.5C 637.272,1123.41 633.939,1123.75 630.5,1123.5C 621.287,1123.85 612.287,1124.85 603.5,1126.5C 588.167,1126.5 572.833,1126.5 557.5,1126.5C 549.34,1125.53 541.007,1124.86 532.5,1124.5C 528.534,1123.84 524.534,1123.5 520.5,1123.5C 517.373,1122.42 514.04,1121.75 510.5,1121.5C 510.167,1121.5 509.833,1121.5 509.5,1121.5C 502.336,1119.71 495.002,1118.38 487.5,1117.5C 482.403,1116.89 477.403,1115.56 472.5,1113.5C 464.502,1110.06 456.169,1107.39 447.5,1105.5C 364.194,1073.32 320.861,1012.32 317.5,922.5C 317.5,872.167 317.5,821.833 317.5,771.5C 385.5,771.5 453.5,771.5 521.5,771.5C 521.168,821.336 521.501,871.003 522.5,920.5C 522.045,938.074 526.212,954.407 535,969.5C 539.602,975.617 545.436,979.951 552.5,982.5C 554.515,983.924 556.848,984.59 559.5,984.5C 564.401,986.052 569.568,986.719 575,986.5C 578.833,986.333 582.667,986.167 586.5,986C 587.416,985.722 588.082,985.222 588.5,984.5C 606.955,980.88 618.455,969.88 623,951.5C 624.934,942.764 626.434,934.097 627.5,925.5C 628.302,924.048 628.802,922.382 629,920.5C 629.5,691.167 629.667,461.834 629.5,232.5C 697.167,232.5 764.833,232.5 832.5,232.5 Z"/></g>
<g><path style="opacity:0.924" fill="#fefefe" d="M 2358.5,352.5 C 2371.43,350.038 2379.6,355.038 2383,367.5C 2394.97,498.86 2407.14,630.193 2419.5,761.5C 2418.18,770.986 2412.85,776.82 2403.5,779C 2377.83,779.667 2352.17,779.667 2326.5,779C 2319.25,778.136 2314.42,774.302 2312,767.5C 2311.33,762.167 2311.33,756.833 2312,751.5C 2323.67,623.834 2335.33,496.167 2347,368.5C 2347.69,360.739 2351.53,355.406 2358.5,352.5 Z M 2364.5,543.5 C 2358.86,610.533 2352.86,677.533 2346.5,744.5C 2358.83,744.5 2371.17,744.5 2383.5,744.5C 2377.69,677.305 2371.36,610.305 2364.5,543.5 Z"/></g>
<g><path style="opacity:0.984" fill="#fefefe" d="M 1230.5,643.5 C 1322.5,643.5 1414.5,643.5 1506.5,643.5C 1506.5,692.5 1506.5,741.5 1506.5,790.5C 1414.5,790.5 1322.5,790.5 1230.5,790.5C 1230.5,741.5 1230.5,692.5 1230.5,643.5 Z"/></g>
<g><path style="opacity:1" fill="#f2f184" d="M 522.5,920.5 C 521.501,871.003 521.168,821.336 521.5,771.5C 453.5,771.5 385.5,771.5 317.5,771.5C 317.5,821.833 317.5,872.167 317.5,922.5C 316.501,872.003 316.168,821.336 316.5,770.5C 385.167,770.5 453.833,770.5 522.5,770.5C 522.5,820.5 522.5,870.5 522.5,920.5 Z"/></g>
<g><path style="opacity:1" fill="#f7f6af" d="M 831.5,928.5 C 831.556,933.731 830.889,938.731 829.5,943.5C 829.444,938.269 830.111,933.269 831.5,928.5 Z"/></g>
<g><path style="opacity:1" fill="#f6f6b0" d="M 825.5,967.5 C 825.59,970.152 824.924,972.485 823.5,974.5C 823.41,971.848 824.076,969.515 825.5,967.5 Z"/></g>
<g><path style="opacity:1" fill="#f5f5a3" d="M 552.5,982.5 C 555.152,982.41 557.485,983.076 559.5,984.5C 556.848,984.59 554.515,983.924 552.5,982.5 Z"/></g>
<g><path style="opacity:1" fill="#f4f393" d="M 559.5,984.5 C 569.179,985.678 578.846,985.678 588.5,984.5C 588.082,985.222 587.416,985.722 586.5,986C 582.667,986.167 578.833,986.333 575,986.5C 569.568,986.719 564.401,986.052 559.5,984.5 Z"/></g>
<g><path style="opacity:1" fill="#f3f28c" d="M 447.5,1105.5 C 456.169,1107.39 464.502,1110.06 472.5,1113.5C 463.831,1111.61 455.498,1108.94 447.5,1105.5 Z"/></g>
<g><path style="opacity:1" fill="#f7f6b3" d="M 708.5,1105.5 C 704.936,1107.92 700.936,1109.59 696.5,1110.5C 700.064,1108.08 704.064,1106.41 708.5,1105.5 Z"/></g>
<g><path style="opacity:1" fill="#f2f185" d="M 487.5,1117.5 C 495.002,1118.38 502.336,1119.71 509.5,1121.5C 501.834,1121.3 494.501,1119.96 487.5,1117.5 Z"/></g>
<g><path style="opacity:1" fill="#f8f7bb" d="M 668.5,1117.5 C 664.841,1119.34 660.841,1120.34 656.5,1120.5C 660.159,1118.66 664.159,1117.66 668.5,1117.5 Z"/></g>
<g><path style="opacity:1" fill="#f6f5aa" d="M 655.5,1120.5 C 650.731,1121.89 645.731,1122.56 640.5,1122.5C 645.269,1121.11 650.269,1120.44 655.5,1120.5 Z"/></g>
<g><path style="opacity:1" fill="#f6f5a7" d="M 510.5,1121.5 C 514.04,1121.75 517.373,1122.42 520.5,1123.5C 516.84,1123.84 513.507,1123.17 510.5,1121.5 Z"/></g>
<g><path style="opacity:1" fill="#f4f397" d="M 630.5,1123.5 C 621.743,1125.44 612.743,1126.44 603.5,1126.5C 612.287,1124.85 621.287,1123.85 630.5,1123.5 Z"/></g>
<g><path style="opacity:1" fill="#f4f399" d="M 532.5,1124.5 C 541.007,1124.86 549.34,1125.53 557.5,1126.5C 548.932,1126.9 540.599,1126.23 532.5,1124.5 Z"/></g>
</svg>
