<?xml version="1.0" encoding="UTF-8"?>
<!DOCTYPE svg PUBLIC "-//W3C//DTD SVG 1.1//EN" "http://www.w3.org/Graphics/SVG/1.1/DTD/svg11.dtd">
<svg xmlns="http://www.w3.org/2000/svg" version="1.1" width="3264px" height="1318px" style="shape-rendering:geometricPrecision; text-rendering:geometricPrecision; image-rendering:optimizeQuality; fill-rule:evenodd; clip-rule:evenodd" xmlns:xlink="http://www.w3.org/1999/xlink">
<g><path style="opacity:0.996" fill="#e8e82f" d="M 599.5,86.5 C 746.24,88.7416 874.906,137.575 985.5,233C 1119.13,357.489 1182.63,511.322 1176,694.5C 1165.35,850.642 1102.85,982.142 988.5,1089C 850.924,1207.83 691.591,1254.83 510.5,1230C 359.139,1203.07 236.306,1128.9 142,1007.5C 48.8695,879.821 12.7028,736.987 33.5,579C 60.5081,413.56 142.841,282.393 280.5,185.5C 377.149,122.127 483.482,89.1275 599.5,86.5 Z"/></g>
<g><path style="opacity:0.958" fill="#e8e82e" d="M 2934.5,208.5 C 2981.66,207.316 3027.99,212.816 3073.5,225C 3150.45,248.956 3196.95,300.456 3213,379.5C 3216.55,396.669 3218.88,414.002 3220,431.5C 3220.67,475.5 3220.67,519.5 3220,563.5C 3217.66,569.174 3213.49,572.674 3207.5,574C 3136.83,574.667 3066.17,574.667 2995.5,574C 2989.11,572.61 2984.94,568.776 2983,562.5C 2982.67,517.5 2982.33,472.5 2982,427.5C 2979.75,391.302 2961.25,378.135 2926.5,388C 2920.27,391.601 2915.77,396.767 2913,403.5C 2910.31,410.943 2908.64,418.609 2908,426.5C 2907.33,597.5 2907.33,768.5 2908,939.5C 2909.7,975.543 2927.86,988.71 2962.5,979C 2969.05,975.445 2973.89,970.279 2977,963.5C 2979.82,955.742 2981.48,947.742 2982,939.5C 2982.69,885.834 2983.36,832.167 2984,778.5C 2984.83,772.34 2988,767.84 2993.5,765C 3064.46,763.35 3135.46,763.016 3206.5,764C 3213.05,764.884 3217.55,768.384 3220,774.5C 3220.67,825.167 3220.67,875.833 3220,926.5C 3212.55,1055.28 3145.38,1130.44 3018.5,1152C 2957.26,1161.55 2896.6,1158.89 2836.5,1144C 2750.09,1117.92 2697.25,1060.75 2678,972.5C 2671.9,943.827 2668.9,914.827 2669,885.5C 2668.05,741.159 2668.38,596.826 2670,452.5C 2671.94,404.398 2684.61,359.398 2708,317.5C 2742.9,264.338 2791.73,231.171 2854.5,218C 2881.04,212.442 2907.7,209.275 2934.5,208.5 Z M 2923.5,243.5 C 2969.51,241.468 3014.84,245.968 3059.5,257C 3125.65,276.827 3165.82,320.66 3180,388.5C 3182.84,402.043 3184.84,415.71 3186,429.5C 3187.33,466.153 3187.83,502.82 3187.5,539.5C 3130.5,539.5 3073.5,539.5 3016.5,539.5C 3016.91,498.815 3016.41,458.149 3015,417.5C 3008.36,367.194 2979.86,345.027 2929.5,351C 2907.18,355.321 2891.35,367.821 2882,388.5C 2876.77,402.005 2874.1,416.005 2874,430.5C 2873.33,599.5 2873.33,768.5 2874,937.5C 2876.42,998.431 2907.58,1023.93 2967.5,1014C 2989.74,1006.76 3004.24,991.93 3011,969.5C 3012.72,963.248 3014.05,956.914 3015,950.5C 3016.37,899.848 3017.21,849.181 3017.5,798.5C 3074.17,798.5 3130.83,798.5 3187.5,798.5C 3187.88,841.514 3187.38,884.514 3186,927.5C 3183.92,964.825 3173.92,999.825 3156,1032.5C 3128.64,1074.14 3090.47,1100.64 3041.5,1112C 3000.69,1121.58 2959.36,1124.91 2917.5,1122C 2876.6,1120.44 2837.93,1110.44 2801.5,1092C 2752.55,1062.67 2722.38,1019.83 2711,963.5C 2706.2,941.761 2703.53,919.761 2703,897.5C 2702.33,754.833 2702.33,612.167 2703,469.5C 2706.98,326.026 2780.48,250.692 2923.5,243.5 Z"/></g>
<g><path style="opacity:0.975" fill="#e8e82e" d="M 1609.5,226.5 C 1685.5,226.333 1761.5,226.5 1837.5,227C 1842.53,228.689 1846.36,231.856 1849,236.5C 1862.47,412.144 1875.81,587.81 1889,763.5C 1911.67,590.833 1934.33,418.167 1957,245.5C 1957.49,236.325 1961.99,230.159 1970.5,227C 2037.17,226.333 2103.83,226.333 2170.5,227C 2178.2,230.062 2182.54,235.729 2183.5,244C 2134.26,539.615 2084.43,835.115 2034,1130.5C 2032.1,1135.4 2028.6,1138.57 2023.5,1140C 1930.83,1140.67 1838.17,1140.67 1745.5,1140C 1740.16,1138.59 1736.33,1135.42 1734,1130.5C 1688.3,837.906 1642.96,545.239 1598,252.5C 1594.59,240.334 1598.43,231.668 1609.5,226.5 Z M 1633.5,260.5 C 1694.83,260.5 1756.17,260.5 1817.5,260.5C 1833.81,482.838 1850.31,705.172 1867,927.5C 1873.57,939.523 1883.07,942.356 1895.5,936C 1898.94,932.889 1901.11,929.056 1902,924.5C 1931,703.5 1960,482.5 1989,261.5C 2041.43,260.503 2093.93,260.169 2146.5,260.5C 2099.18,542.107 2052.18,823.774 2005.5,1105.5C 1924.83,1105.5 1844.17,1105.5 1763.5,1105.5C 1720.27,823.817 1676.94,542.15 1633.5,260.5 Z"/></g>
<g><path style="opacity:0.967" fill="#e8e82e" d="M 2244.5,226.5 C 2341.17,226.333 2437.83,226.5 2534.5,227C 2539.53,228.689 2543.36,231.856 2546,236.5C 2584.49,529.75 2622.49,823.083 2660,1116.5C 2662.46,1126.14 2659.62,1133.64 2651.5,1139C 2579.56,1140.66 2507.56,1140.99 2435.5,1140C 2429.26,1138.09 2425.43,1133.93 2424,1127.5C 2416.59,1060.51 2409.26,993.508 2402,926.5C 2388.56,925.176 2374.89,924.509 2361,924.5C 2347.26,924.504 2333.59,924.838 2320,925.5C 2309.67,992.167 2299.33,1058.83 2289,1125.5C 2287.61,1133.22 2283.11,1138.05 2275.5,1140C 2215.5,1140.67 2155.5,1140.67 2095.5,1140C 2087,1137.85 2082.67,1132.35 2082.5,1123.5C 2131.67,833.833 2180.83,544.167 2230,254.5C 2230.92,247.302 2232.59,240.302 2235,233.5C 2237.53,230.115 2240.7,227.782 2244.5,226.5 Z M 2263.5,260.5 C 2347.5,260.5 2431.5,260.5 2515.5,260.5C 2551.92,542.156 2588.25,823.823 2624.5,1105.5C 2568.17,1105.5 2511.83,1105.5 2455.5,1105.5C 2448.26,1037.48 2440.76,969.477 2433,901.5C 2430.6,894.703 2425.76,890.87 2418.5,890C 2380.17,889.333 2341.83,889.333 2303.5,890C 2298.09,890.405 2293.92,892.905 2291,897.5C 2279.55,966.647 2268.38,1035.81 2257.5,1105C 2211.5,1105.83 2165.5,1105.67 2119.5,1104.5C 2167.63,823.184 2215.63,541.851 2263.5,260.5 Z M 2364.5,555.5 C 2371.36,622.305 2377.69,689.305 2383.5,756.5C 2371.17,756.5 2358.83,756.5 2346.5,756.5C 2352.86,689.533 2358.86,622.533 2364.5,555.5 Z"/></g>
<g><path style="opacity:1" fill="#fbfad6" d="M 832.5,915.5 C 832.5,691.833 832.5,468.167 832.5,244.5C 764.833,244.5 697.167,244.5 629.5,244.5C 629.667,473.167 629.5,701.834 629,930.5C 628.814,933.036 628.314,935.369 627.5,937.5C 628.491,706.176 628.825,474.843 628.5,243.5C 696.833,243.5 765.167,243.5 833.5,243.5C 833.833,467.667 833.5,691.667 832.5,915.5 Z"/></g>
<g><path style="opacity:1" fill="#fefefe" d="M 832.5,915.5 C 831.998,926.178 831.332,936.845 830.5,947.5C 829.143,953.31 828.143,959.31 827.5,965.5C 814.106,1050.06 766.106,1103.56 683.5,1126C 614.221,1143.51 544.887,1143.84 475.5,1127C 430.914,1115.97 393.08,1093.8 362,1060.5C 333.171,1024.03 318.171,982.36 317,935.5C 316.168,884.665 316.335,833.998 317.5,783.5C 385.5,783.5 453.5,783.5 521.5,783.5C 521.168,833.669 521.501,883.669 522.5,933.5C 521.417,951.741 525.917,968.408 536,983.5C 546.023,994.006 558.356,999.006 573,998.5C 599.707,999.331 616.707,986.998 624,961.5C 625.659,953.564 626.825,945.564 627.5,937.5C 628.314,935.369 628.814,933.036 629,930.5C 629.5,701.834 629.667,473.167 629.5,244.5C 697.167,244.5 764.833,244.5 832.5,244.5C 832.5,468.167 832.5,691.833 832.5,915.5 Z"/></g>
<g><path style="opacity:0.965" fill="#e9e92e" d="M 2359.5,364.5 C 2371.77,362.871 2379.61,367.871 2383,379.5C 2394.96,510.861 2407.12,642.194 2419.5,773.5C 2418.18,782.986 2412.85,788.82 2403.5,791C 2377.83,791.667 2352.17,791.667 2326.5,791C 2319.25,790.136 2314.42,786.302 2312,779.5C 2311.33,774.167 2311.33,768.833 2312,763.5C 2323.61,636.161 2335.27,508.828 2347,381.5C 2347.59,373.09 2351.76,367.424 2359.5,364.5 Z M 2364.5,555.5 C 2358.86,622.533 2352.86,689.533 2346.5,756.5C 2358.83,756.5 2371.17,756.5 2383.5,756.5C 2377.69,689.305 2371.36,622.305 2364.5,555.5 Z"/></g>
<g><path style="opacity:0.99" fill="#e8e82e" d="M 1230.5,655.5 C 1322.5,655.5 1414.5,655.5 1506.5,655.5C 1506.5,704.5 1506.5,753.5 1506.5,802.5C 1414.5,802.5 1322.5,802.5 1230.5,802.5C 1230.5,753.5 1230.5,704.5 1230.5,655.5 Z"/></g>
<g><path style="opacity:1" fill="#f3f28f" d="M 317.5,783.5 C 385.665,782.501 453.998,782.167 522.5,782.5C 522.5,832.833 522.5,883.167 522.5,933.5C 521.501,883.669 521.168,833.669 521.5,783.5C 453.5,783.5 385.5,783.5 317.5,783.5 Z"/></g>
<g><path style="opacity:1" fill="#f3f294" d="M 830.5,947.5 C 830.6,953.82 829.6,959.82 827.5,965.5C 828.143,959.31 829.143,953.31 830.5,947.5 Z"/></g>
</svg>
