<svg width="53" height="54" viewBox="0 0 53 54" fill="none" xmlns="http://www.w3.org/2000/svg">
<path d="M45.5006 8.5745L17.7594 18.4802V33.8141L19.3979 34.3989L16.9292 39.3364C16.648 39.8978 16.4908 40.513 16.4683 41.1404C16.4457 41.7678 16.5584 42.3927 16.7985 42.9728C17.0387 43.5528 17.4008 44.0745 17.8602 44.5023C18.3197 44.9302 18.8658 45.2542 19.4615 45.4525L28.4077 48.4338C29.4084 48.7601 30.4928 48.718 31.4653 48.3151C32.4377 47.9122 33.2342 47.1751 33.711 46.2367L36.5653 40.5281L45.5006 43.7197C45.831 43.8376 46.1849 43.8744 46.5325 43.827C46.8801 43.7796 47.2112 43.6495 47.498 43.4474C47.7848 43.2454 48.0189 42.9775 48.1806 42.6662C48.3423 42.3548 48.4268 42.0092 48.4271 41.6584V10.6358C48.4268 10.285 48.3423 9.93939 48.1806 9.62807C48.0189 9.31674 47.7848 9.0488 47.498 8.84679C47.2112 8.64478 46.8801 8.5146 46.5325 8.46722C46.1849 8.41983 45.831 8.45663 45.5006 8.5745ZM29.7921 44.2783L20.8481 41.297L23.5534 35.8841L32.4076 39.0473L29.7921 44.2783ZM8.99719 33.8141H13.3783V18.4802H8.99719C6.58101 18.4802 4.61609 20.4451 4.61609 22.8613V29.4329C4.61609 31.8491 6.58101 33.8141 8.99719 33.8141Z" fill="#E2E221"/>
</svg>
