<svg width="54" height="54" viewBox="0 0 54 54" fill="none" xmlns="http://www.w3.org/2000/svg">
<path d="M27.1884 31.3496C26.5386 31.3496 25.9033 31.1568 25.3629 30.7958C24.8226 30.4347 24.4014 29.9216 24.1527 29.3212C23.904 28.7207 23.839 28.0601 23.9658 27.4227C24.0925 26.7853 24.4055 26.1998 24.865 25.7403C25.3245 25.2808 25.91 24.9678 26.5474 24.841C27.1848 24.7142 27.8455 24.7793 28.4459 25.028C29.0463 25.2767 29.5595 25.6979 29.9205 26.2382C30.2816 26.7786 30.4743 27.4138 30.4743 28.0637C30.4743 28.9352 30.1281 29.7709 29.5119 30.3872C28.8957 31.0034 28.0599 31.3496 27.1884 31.3496V31.3496ZM45.4864 29.8093L30.31 50.4074C30.2065 50.5453 30.0623 50.6472 29.8978 50.6986C29.7332 50.75 29.5566 50.7483 29.3931 50.6938C29.2295 50.6393 29.0872 50.5347 28.9864 50.3948C28.8856 50.2549 28.8314 50.0869 28.8314 49.9145V34.43C30.3801 34.0301 31.7298 33.0792 32.6275 31.7553C33.5252 30.4315 33.9093 28.8257 33.7077 27.239C33.5062 25.6522 32.7329 24.1935 31.5327 23.1361C30.3325 22.0787 28.7879 21.4954 27.1884 21.4954C25.5889 21.4954 24.0444 22.0787 22.8442 23.1361C21.644 24.1935 20.8707 25.6522 20.6692 27.239C20.4676 28.8257 20.8517 30.4315 21.7494 31.7553C22.6471 33.0792 23.9968 34.0301 25.5455 34.43V49.9145C25.5455 50.0869 25.4913 50.2549 25.3905 50.3948C25.2897 50.5347 25.1474 50.6393 24.9838 50.6938C24.8203 50.7483 24.6437 50.75 24.4791 50.6986C24.3146 50.6472 24.1704 50.5453 24.0669 50.4074L8.89048 29.8093C8.53297 29.3233 8.31528 28.7487 8.26098 28.1478C8.20668 27.5468 8.31784 26.9425 8.58244 26.4003L14.0451 15.3517V7.52728C14.0451 6.65583 14.3913 5.82006 15.0075 5.20385C15.6237 4.58764 16.4595 4.24146 17.331 4.24146H37.0459C37.9174 4.24146 38.7532 4.58764 39.3694 5.20385C39.9856 5.82006 40.3318 6.65583 40.3318 7.52728V15.3517L45.7945 26.4003C46.0591 26.9425 46.1702 27.5468 46.1159 28.1478C46.0616 28.7487 45.8439 29.3233 45.4864 29.8093V29.8093ZM37.0459 7.52728H17.331V14.0989H37.0459V7.52728Z" fill="#E2E221"/>
</svg>
