<svg width="53" height="54" viewBox="0 0 53 54" fill="none" xmlns="http://www.w3.org/2000/svg">
<mask id="mask0_22_13721" style="mask-type:alpha" maskUnits="userSpaceOnUse" x="2" y="7" width="49" height="42">
<path d="M25.4265 44.7669H7.9021C7.03065 44.7669 6.19488 44.4207 5.57867 43.8045C4.96246 43.1883 4.61627 42.3525 4.61627 41.481V13.0038C4.61627 12.1324 4.96246 11.2966 5.57867 10.6804C6.19488 10.0642 7.03065 9.71802 7.9021 9.71802H45.1415C46.013 9.71802 46.8487 10.0642 47.4649 10.6804C48.0811 11.2966 48.4273 12.1324 48.4273 13.0038V29.3038" stroke="white" stroke-width="4.38111" stroke-linecap="round" stroke-linejoin="round"/>
<path d="M4.61627 13.0038C4.61627 12.1324 4.96246 11.2966 5.57867 10.6804C6.19488 10.0642 7.03065 9.71802 7.9021 9.71802H45.1415C46.013 9.71802 46.8487 10.0642 47.4649 10.6804C48.0811 11.2966 48.4273 12.1324 48.4273 13.0038V22.8613H4.61627V13.0038Z" fill="white" stroke="white" stroke-width="4.38111"/>
<path d="M44.0463 37.0997L48.4274 41.4808L44.0463 45.8619M37.4746 37.0997L33.0935 41.4808L37.4746 45.8619V37.0997Z" stroke="white" stroke-width="4.38111" stroke-linecap="round" stroke-linejoin="round"/>
<path d="M8.99737 16.2897C8.99737 15.0799 9.97812 14.0991 11.1879 14.0991C12.3977 14.0991 13.3785 15.0799 13.3785 16.2897C13.3785 17.4995 12.3977 18.4802 11.1879 18.4802C9.97812 18.4802 8.99737 17.4995 8.99737 16.2897Z" fill="black"/>
<path d="M15.569 16.2897C15.569 15.0799 16.5498 14.0991 17.7596 14.0991C18.9694 14.0991 19.9501 15.0799 19.9501 16.2897C19.9501 17.4995 18.9694 18.4802 17.7596 18.4802C16.5498 18.4802 15.569 17.4995 15.569 16.2897Z" fill="black"/>
</mask>
<g mask="url(#mask0_22_13721)">
<path d="M0.235168 0.955688H52.8084V53.529H0.235168V0.955688Z" fill="#E2E221"/>
</g>
</svg>
